<svg width="46" height="24" viewBox="0 0 46 24" fill="none" xmlns="http://www.w3.org/2000/svg">
<path d="M3.30859 4.50586C2.96224 4.50586 2.78906 4.81803 2.78906 5.44238V6.30371C2.78906 7.88965 2.80501 8.86947 2.83691 9.24316C2.87337 9.6123 2.90755 9.86979 2.93945 10.0156C2.97591 10.1615 3.02376 10.2913 3.08301 10.4053C3.17871 10.5921 3.37012 10.7904 3.65723 11H0.751953C0.920573 10.6628 1.02311 10.3757 1.05957 10.1387C1.09603 9.90169 1.12337 9.65104 1.1416 9.38672C1.17806 8.84896 1.19629 8.12663 1.19629 7.21973C1.19629 6.12142 1.17806 5.11882 1.1416 4.21191L1.06641 2.33203C1.04818 1.85807 1.00716 1.52767 0.943359 1.34082C0.843099 1.0446 0.679036 0.777995 0.451172 0.541016H4.27246C5.30241 0.541016 6.04753 0.650391 6.50781 0.869141C6.99544 1.09701 7.23926 1.48665 7.23926 2.03809C7.23926 2.71257 6.94987 3.27083 6.37109 3.71289C5.6875 4.24154 4.66667 4.50586 3.30859 4.50586ZM5.01074 3.25488C5.15658 3.10905 5.26367 2.95638 5.33203 2.79688C5.40039 2.63281 5.43457 2.48242 5.43457 2.3457C5.43457 2.20443 5.41406 2.06543 5.37305 1.92871C5.33659 1.79199 5.26139 1.67122 5.14746 1.56641C4.89225 1.33854 4.45475 1.22461 3.83496 1.22461C3.46126 1.22461 3.21745 1.27018 3.10352 1.36133C2.89388 1.53451 2.78906 1.87402 2.78906 2.37988C2.78906 2.94954 2.83464 3.30273 2.92578 3.43945C3.01693 3.57161 3.12174 3.6582 3.24023 3.69922C3.35872 3.73568 3.53874 3.75391 3.78027 3.75391C4.02637 3.75391 4.25651 3.70605 4.4707 3.61035C4.68945 3.51465 4.86947 3.39616 5.01074 3.25488ZM13.0771 6.93262L13.0703 5.05957C13.0703 4.80436 13.0293 4.63118 12.9473 4.54004C12.7969 4.37142 12.5189 4.28711 12.1133 4.28711H11.0332C10.4681 4.28711 10.1582 4.44661 10.1035 4.76562C10.0898 4.85677 10.083 4.95475 10.083 5.05957L10.0762 7.11035C10.0762 8.87858 10.1673 9.986 10.3496 10.4326C10.4225 10.6058 10.5365 10.7949 10.6914 11H8.12793C8.27376 10.6536 8.35807 10.3643 8.38086 10.1318C8.4082 9.89941 8.43555 9.6123 8.46289 9.27051C8.51302 8.55501 8.53809 7.73698 8.53809 6.81641C8.53809 5.89583 8.53581 5.26237 8.53125 4.91602C8.52669 4.5651 8.52214 4.22331 8.51758 3.89062C8.48568 2.50977 8.44238 1.68262 8.3877 1.40918C8.33301 1.13118 8.28743 0.944336 8.25098 0.848633L8.12793 0.541016H10.6914C10.3633 0.905599 10.181 1.39779 10.1445 2.01758C10.1309 2.20443 10.124 2.40039 10.124 2.60547C10.124 2.81055 10.1423 2.97233 10.1787 3.09082C10.2197 3.20475 10.2858 3.28906 10.377 3.34375C10.5 3.42578 10.7894 3.4668 11.2451 3.4668H11.8945C12.3594 3.4668 12.6465 3.43262 12.7559 3.36426C12.9382 3.24577 13.0293 2.98828 13.0293 2.5918C13.0293 1.62109 12.8379 0.9375 12.4551 0.541016H15.0186C14.8818 0.841797 14.7975 1.11979 14.7656 1.375C14.7383 1.63021 14.7178 1.8763 14.7041 2.11328C14.6904 2.3457 14.6768 2.61686 14.6631 2.92676C14.6494 3.23665 14.638 3.55794 14.6289 3.89062C14.6152 4.66536 14.6084 5.36719 14.6084 5.99609C14.6084 8.55273 14.7041 10.1182 14.8955 10.6924C14.9274 10.7881 14.9684 10.8906 15.0186 11H12.4551C12.6829 10.6947 12.8219 10.4326 12.8721 10.2139C12.9222 9.99056 12.9609 9.72852 12.9883 9.42773C13.0475 8.84896 13.0771 8.01725 13.0771 6.93262ZM20.3232 10.4531C21.1982 10.4531 21.7633 9.38672 22.0186 7.25391C22.1051 6.53385 22.1484 5.6862 22.1484 4.71094C22.1484 2.29557 21.5355 1.08789 20.3096 1.08789C19.0837 1.08789 18.4707 2.29557 18.4707 4.71094C18.4707 7.55924 18.8376 9.3571 19.5713 10.1045C19.7992 10.3369 20.0498 10.4531 20.3232 10.4531ZM20.3096 11.1367C19.0973 11.1367 18.1836 10.5671 17.5684 9.42773C16.9759 8.32943 16.6797 6.75716 16.6797 4.71094C16.6797 2.58268 17.3337 1.24284 18.6416 0.691406C19.1019 0.5 19.6579 0.404297 20.3096 0.404297C22.1781 0.404297 23.3197 1.23372 23.7344 2.89258C23.8711 3.42578 23.9395 4.11165 23.9395 4.9502C23.9395 5.78874 23.8665 6.60677 23.7207 7.4043C23.5749 8.19727 23.3516 8.87174 23.0508 9.42773C22.4355 10.5671 21.5218 11.1367 20.3096 11.1367ZM31.0352 8.4707C31.1582 8.63932 31.2197 8.88314 31.2197 9.20215C31.2197 9.52116 31.2061 9.77637 31.1787 9.96777C31.1514 10.1546 31.1081 10.3255 31.0488 10.4805C30.9121 10.8268 30.7321 11 30.5088 11H24.9717C25.3226 10.8132 25.555 10.6331 25.6689 10.46C25.8831 10.1364 25.9902 9.72624 25.9902 9.22949C25.9857 8.0127 25.9834 6.91211 25.9834 5.92773V2.33203C25.9834 1.65299 25.8763 1.16081 25.6621 0.855469C25.5801 0.746094 25.4821 0.641276 25.3682 0.541016H30.5088C30.8187 0.650391 31.0306 1.0332 31.1445 1.68945C31.1764 1.87174 31.1924 2.04948 31.1924 2.22266C31.1924 2.57812 31.14 2.86068 31.0352 3.07031L30.666 2.33203C30.4199 1.84896 30.0667 1.52539 29.6064 1.36133C29.3512 1.27018 29.0641 1.22461 28.7451 1.22461C28.4261 1.22461 28.1982 1.236 28.0615 1.25879C27.9248 1.27702 27.82 1.32487 27.7471 1.40234C27.6286 1.53451 27.5693 1.78743 27.5693 2.16113C27.5693 2.53027 27.5785 2.78776 27.5967 2.93359C27.6149 3.07487 27.6582 3.19108 27.7266 3.28223C27.8678 3.45996 28.1663 3.54883 28.6221 3.54883H30.7686C30.6637 3.81315 30.5566 4 30.4473 4.10938C30.2285 4.32812 29.9323 4.4375 29.5586 4.4375C29.4128 4.4375 29.2738 4.42155 29.1416 4.38965C28.8955 4.3304 28.679 4.30078 28.4922 4.30078C28.3053 4.30078 28.1504 4.31901 28.0273 4.35547C27.9089 4.38737 27.8154 4.43978 27.7471 4.5127C27.6286 4.6403 27.5693 4.87044 27.5693 5.20312V8.46387C27.5693 9.32064 27.6172 9.82878 27.7129 9.98828C27.8086 10.1478 27.9248 10.2435 28.0615 10.2754C28.1982 10.3027 28.4261 10.3164 28.7451 10.3164C29.0641 10.3164 29.3535 10.2708 29.6133 10.1797C29.873 10.0885 30.0895 9.96094 30.2627 9.79688C30.4404 9.63281 30.5863 9.43913 30.7002 9.21582C30.8141 8.98796 30.9258 8.73958 31.0352 8.4707ZM38.7461 2.03809C38.7461 2.80371 38.1855 3.43262 37.0645 3.9248C37.9941 4.09798 38.6003 4.51953 38.8828 5.18945C38.974 5.41276 39.0195 5.70898 39.0195 6.07812C39.0195 6.44271 38.9648 6.83919 38.8555 7.26758C38.7507 7.69141 38.582 8.09245 38.3496 8.4707C38.1217 8.8444 37.8301 9.1862 37.4746 9.49609C37.1191 9.80599 36.693 10.0726 36.1963 10.2959C35.1527 10.7653 33.863 11 32.3271 11C32.473 10.6536 32.5573 10.3643 32.5801 10.1318C32.6074 9.89941 32.6302 9.65104 32.6484 9.38672C32.6849 8.84896 32.7031 8.12663 32.7031 7.21973C32.7031 6.12142 32.6849 5.11882 32.6484 4.21191L32.5732 2.33203C32.555 1.85807 32.514 1.52767 32.4502 1.34082C32.3499 1.0446 32.1859 0.777995 31.958 0.541016H35.5742C36.6771 0.541016 37.4746 0.650391 37.9668 0.869141C38.4863 1.09701 38.7461 1.48665 38.7461 2.03809ZM34.2959 5.5791L34.3027 9.05176C34.3027 9.31152 34.3301 9.50749 34.3848 9.63965C34.444 9.77181 34.5602 9.83789 34.7334 9.83789C35.4352 9.83789 36.0208 9.50521 36.4902 8.83984C36.9733 8.15625 37.2148 7.26758 37.2148 6.17383C37.2148 5.63151 37.0941 5.22819 36.8525 4.96387C36.5335 4.61296 35.9616 4.4375 35.1367 4.4375C34.9499 4.4375 34.8018 4.44661 34.6924 4.46484C34.583 4.47852 34.4987 4.52181 34.4395 4.59473C34.3438 4.71322 34.2959 5.04134 34.2959 5.5791ZM36.5518 3.20703C36.693 3.07031 36.7933 2.92448 36.8525 2.76953C36.9118 2.61458 36.9414 2.47103 36.9414 2.33887C36.9414 2.20215 36.9209 2.06543 36.8799 1.92871C36.8434 1.79199 36.7682 1.67122 36.6543 1.56641C36.3991 1.33854 35.9616 1.22461 35.3418 1.22461C34.8724 1.22461 34.5921 1.27246 34.501 1.36816C34.4098 1.45931 34.3529 1.58236 34.3301 1.7373C34.3073 1.89225 34.2959 2.09277 34.2959 2.33887C34.2959 2.5804 34.3027 2.7832 34.3164 2.94727C34.3301 3.10677 34.3665 3.24121 34.4258 3.35059C34.5397 3.57389 34.7721 3.68555 35.123 3.68555C35.4785 3.68555 35.7702 3.63997 35.998 3.54883C36.2305 3.45768 36.415 3.34375 36.5518 3.20703ZM45.6641 8.4707C45.7871 8.63932 45.8486 8.88314 45.8486 9.20215C45.8486 9.52116 45.835 9.77637 45.8076 9.96777C45.7803 10.1546 45.737 10.3255 45.6777 10.4805C45.541 10.8268 45.361 11 45.1377 11H39.6006C39.9515 10.8132 40.1839 10.6331 40.2979 10.46C40.512 10.1364 40.6191 9.72624 40.6191 9.22949C40.6146 8.0127 40.6123 6.91211 40.6123 5.92773V2.33203C40.6123 1.65299 40.5052 1.16081 40.291 0.855469C40.209 0.746094 40.111 0.641276 39.9971 0.541016H45.1377C45.4476 0.650391 45.6595 1.0332 45.7734 1.68945C45.8053 1.87174 45.8213 2.04948 45.8213 2.22266C45.8213 2.57812 45.7689 2.86068 45.6641 3.07031L45.2949 2.33203C45.0488 1.84896 44.6956 1.52539 44.2354 1.36133C43.9801 1.27018 43.693 1.22461 43.374 1.22461C43.055 1.22461 42.8271 1.236 42.6904 1.25879C42.5537 1.27702 42.4489 1.32487 42.376 1.40234C42.2575 1.53451 42.1982 1.78743 42.1982 2.16113C42.1982 2.53027 42.2074 2.78776 42.2256 2.93359C42.2438 3.07487 42.2871 3.19108 42.3555 3.28223C42.4967 3.45996 42.7952 3.54883 43.251 3.54883H45.3975C45.2926 3.81315 45.1855 4 45.0762 4.10938C44.8574 4.32812 44.5612 4.4375 44.1875 4.4375C44.0417 4.4375 43.9027 4.42155 43.7705 4.38965C43.5244 4.3304 43.3079 4.30078 43.1211 4.30078C42.9342 4.30078 42.7793 4.31901 42.6562 4.35547C42.5378 4.38737 42.4443 4.43978 42.376 4.5127C42.2575 4.6403 42.1982 4.87044 42.1982 5.20312V8.46387C42.1982 9.32064 42.2461 9.82878 42.3418 9.98828C42.4375 10.1478 42.5537 10.2435 42.6904 10.2754C42.8271 10.3027 43.055 10.3164 43.374 10.3164C43.693 10.3164 43.9824 10.2708 44.2422 10.1797C44.502 10.0885 44.7184 9.96094 44.8916 9.79688C45.0693 9.63281 45.2152 9.43913 45.3291 9.21582C45.443 8.98796 45.5547 8.73958 45.6641 8.4707ZM6.22754 20.4707C6.35059 20.6484 6.41211 20.8626 6.41211 21.1133C6.41211 21.3639 6.39388 21.5804 6.35742 21.7627C6.32552 21.945 6.27995 22.1182 6.2207 22.2822C6.08398 22.6423 5.91081 22.8815 5.70117 23H0.205078C0.565104 22.7767 0.799805 22.583 0.90918 22.4189C1.11882 22.109 1.22363 21.708 1.22363 21.2158C1.21908 20.0036 1.2168 18.9076 1.2168 17.9277V14.3457C1.2168 13.6849 1.10742 13.1995 0.888672 12.8896C0.811198 12.7757 0.715495 12.6595 0.601562 12.541H3.41113C3.14225 12.9284 2.98958 13.3271 2.95312 13.7373C2.94401 13.874 2.93945 14.0244 2.93945 14.1885V20.4502C2.93945 21.3024 2.98503 21.8128 3.07617 21.9814C3.16732 22.1455 3.27669 22.2435 3.4043 22.2754C3.5319 22.3027 3.72559 22.3164 3.98535 22.3164C4.24512 22.3164 4.49121 22.2708 4.72363 22.1797C4.95605 22.0885 5.16341 21.9609 5.3457 21.7969C5.6556 21.5143 5.94954 21.0723 6.22754 20.4707ZM12.4551 20.4707C12.5781 20.6393 12.6396 20.8831 12.6396 21.2021C12.6396 21.5212 12.626 21.7764 12.5986 21.9678C12.5713 22.1546 12.528 22.3255 12.4688 22.4805C12.332 22.8268 12.152 23 11.9287 23H6.3916C6.74251 22.8132 6.97493 22.6331 7.08887 22.46C7.30306 22.1364 7.41016 21.7262 7.41016 21.2295C7.4056 20.0127 7.40332 18.9121 7.40332 17.9277V14.332C7.40332 13.653 7.29622 13.1608 7.08203 12.8555C7 12.7461 6.90202 12.6413 6.78809 12.541H11.9287C12.2386 12.6504 12.4505 13.0332 12.5645 13.6895C12.5964 13.8717 12.6123 14.0495 12.6123 14.2227C12.6123 14.5781 12.5599 14.8607 12.4551 15.0703L12.0859 14.332C11.8398 13.849 11.4867 13.5254 11.0264 13.3613C10.7712 13.2702 10.484 13.2246 10.165 13.2246C9.84603 13.2246 9.61816 13.236 9.48145 13.2588C9.34473 13.277 9.23991 13.3249 9.16699 13.4023C9.0485 13.5345 8.98926 13.7874 8.98926 14.1611C8.98926 14.5303 8.99837 14.7878 9.0166 14.9336C9.03483 15.0749 9.07812 15.1911 9.14648 15.2822C9.28776 15.46 9.58626 15.5488 10.042 15.5488H12.1885C12.0837 15.8132 11.9766 16 11.8672 16.1094C11.6484 16.3281 11.3522 16.4375 10.9785 16.4375C10.8327 16.4375 10.6937 16.4215 10.5615 16.3896C10.3154 16.3304 10.099 16.3008 9.91211 16.3008C9.72526 16.3008 9.57031 16.319 9.44727 16.3555C9.32878 16.3874 9.23535 16.4398 9.16699 16.5127C9.0485 16.6403 8.98926 16.8704 8.98926 17.2031V20.4639C8.98926 21.3206 9.03711 21.8288 9.13281 21.9883C9.22852 22.1478 9.34473 22.2435 9.48145 22.2754C9.61816 22.3027 9.84603 22.3164 10.165 22.3164C10.484 22.3164 10.7734 22.2708 11.0332 22.1797C11.293 22.0885 11.5094 21.9609 11.6826 21.7969C11.8604 21.6328 12.0062 21.4391 12.1201 21.2158C12.234 20.988 12.3457 20.7396 12.4551 20.4707ZM19.1475 19.4932L19.1816 16.8682C19.1816 15.0316 19.1133 13.8581 18.9766 13.3477C18.9128 13.1016 18.8353 12.9215 18.7441 12.8076C18.6576 12.6937 18.5869 12.6048 18.5322 12.541H20.7744L20.6309 12.7324C20.4258 13.0332 20.3118 13.3727 20.2891 13.751C20.2663 14.1292 20.248 14.512 20.2344 14.8994C20.2253 15.2868 20.2161 15.6719 20.207 16.0547C20.1979 16.6973 20.1934 17.415 20.1934 18.208V19.042C20.1934 20.514 19.9564 21.569 19.4824 22.207C19.013 22.8268 18.2474 23.1367 17.1855 23.1367C15.1302 23.1367 14.1071 21.8174 14.1162 19.1787L14.123 14.0586C14.123 13.3385 13.9954 12.8327 13.7402 12.541H16.3311C16.0622 12.8646 15.9277 13.3249 15.9277 13.9219C15.9277 14.2682 15.9255 14.6237 15.9209 14.9883L15.8936 17.1758C15.889 17.5358 15.8867 17.9072 15.8867 18.29C15.8867 19.6618 15.9277 20.5322 16.0098 20.9014C16.0918 21.266 16.1921 21.5508 16.3105 21.7559C16.584 22.2207 16.9896 22.4531 17.5273 22.4531C18.3568 22.4531 18.8672 21.847 19.0586 20.6348C19.1178 20.2747 19.1475 19.8942 19.1475 19.4932ZM23.6318 15.5557C23.6227 16.0296 23.6182 16.5697 23.6182 17.1758C23.6182 18.0371 23.6341 19.0238 23.666 20.1357C23.6979 21.2432 23.723 21.8743 23.7412 22.0293C23.7594 22.1797 23.7822 22.3118 23.8096 22.4258C23.8551 22.6126 23.9258 22.804 24.0215 23H22.1895C22.3262 22.722 22.4082 22.4508 22.4355 22.1865C22.4674 21.9176 22.4925 21.651 22.5107 21.3867C22.5472 20.849 22.5654 20.1266 22.5654 19.2197C22.5654 18.1214 22.5472 17.1188 22.5107 16.2119L22.4355 14.332C22.4082 13.6393 22.2988 13.1471 22.1074 12.8555C22.0299 12.7461 21.9342 12.6413 21.8203 12.541H23.9463C24.2152 13.1608 24.5 13.776 24.8008 14.3867L25.7305 16.2051L27.7266 19.876C27.7311 19.5889 27.7334 19.2812 27.7334 18.9531V17.8867C27.7334 15.6081 27.5944 13.9629 27.3164 12.9512C27.2617 12.7643 27.2025 12.6276 27.1387 12.541L29.1963 12.5342C28.9684 12.9899 28.8249 14.2728 28.7656 16.3828C28.7565 16.7109 28.752 17.0254 28.752 17.3262L28.7588 17.9004V20.6895C28.7588 21.8698 28.7679 22.64 28.7861 23H27.6787L25.6963 19.3086L23.6318 15.5557ZM35.1299 19.6572L35.123 18.7686C35.123 18.2536 35.0729 17.9118 34.9727 17.7432C34.8724 17.57 34.7676 17.4447 34.6582 17.3672C34.5488 17.2852 34.4144 17.2031 34.2549 17.1211H37.2559C36.9688 17.3854 36.7865 17.7227 36.709 18.1328C36.6361 18.5247 36.5996 19.1309 36.5996 19.9512C36.5996 21.5462 36.6953 22.6081 36.8867 23.1367C36.8229 23.1413 36.7591 23.1436 36.6953 23.1436H36.5107C34.5055 23.1436 32.9857 22.4987 31.9512 21.209C30.9622 19.974 30.4678 18.2217 30.4678 15.9521C30.4678 14.8311 30.7982 13.972 31.459 13.375C32.0697 12.819 32.8877 12.541 33.9131 12.541L35.1162 12.5547C35.7497 12.5547 36.1917 12.4772 36.4424 12.3223C36.5472 12.2539 36.6361 12.1673 36.709 12.0625C36.8229 12.2812 36.8799 12.582 36.8799 12.9648C36.8799 13.3477 36.8685 13.6576 36.8457 13.8945C36.8229 14.127 36.7887 14.3548 36.7432 14.5781C36.6475 15.0521 36.4993 15.4212 36.2988 15.6855C36.1257 14.7741 35.9092 14.1452 35.6494 13.7988C35.3577 13.416 34.902 13.2246 34.2822 13.2246C33.4984 13.2246 32.9447 13.5391 32.6211 14.168C32.3887 14.6283 32.2725 15.3255 32.2725 16.2598C32.2725 17.5404 32.4707 18.7686 32.8672 19.9443C33.1452 20.7692 33.4915 21.3548 33.9062 21.7012C34.1204 21.8835 34.3415 21.9746 34.5693 21.9746C34.8018 21.9746 34.9499 21.9085 35.0137 21.7764C35.0775 21.6442 35.1117 21.4186 35.1162 21.0996C35.1253 20.4707 35.1299 19.9899 35.1299 19.6572Z" fill="#006383"/>
</svg>
